<svg aria-hidden="true" style="position:absolute;width:0;height:0;overflow:hidden" xmlns="http://www.w3.org/2000/svg">
  <defs>
    <symbol id="icon-Group-50" viewBox="0 0 46 32">
<path d="M11.428 27.43h13.716c1.262 0 2.285 1.023 2.285 2.285v0c0 1.262-1.023 2.285-2.285 2.285h-13.716c-1.262 0-2.285-1.023-2.285-2.285v0c0-1.262 1.023-2.285 2.285-2.285z"></path>
<path d="M11.428 13.715h32.002c1.262 0 2.285 1.023 2.285 2.285v0c0 1.262-1.023 2.285-2.285 2.285h-32.002c-1.262 0-2.285-1.023-2.285-2.285v0c0-1.262 1.023-2.285 2.285-2.285z"></path>
<path d="M11.428 0h32.002c1.262 0 2.285 1.023 2.285 2.285v0c0 1.262-1.023 2.285-2.285 2.285h-32.002c-1.262 0-2.285-1.023-2.285-2.285v0c0-1.262 1.023-2.285 2.285-2.285z"></path>
<path d="M4.571 2.285c0 1.262-1.023 2.285-2.286 2.285s-2.286-1.023-2.286-2.285c0-1.262 1.023-2.285 2.286-2.285s2.286 1.023 2.286 2.285z"></path>
<path d="M4.571 16c0 1.262-1.023 2.285-2.286 2.285s-2.286-1.023-2.286-2.285c0-1.262 1.023-2.285 2.286-2.285s2.286 1.023 2.286 2.285z"></path>
<path d="M4.571 29.715c0 1.262-1.023 2.285-2.286 2.285s-2.286-1.023-2.286-2.285c0-1.262 1.023-2.285 2.286-2.285s2.286 1.023 2.286 2.285z"></path>
</symbol>
    <symbol id="icon-search" viewBox="0 0 32 32">
<path d="M21.146 3.628c4.315 4.315 4.807 11.073 1.339 15.937l8.88 8.88c0.806 0.806 0.806 2.113 0 2.92s-2.113 0.806-2.92 0l-8.881-8.88-0.253 0.176c-4.844 3.274-11.443 2.725-15.683-1.515-4.837-4.837-4.837-12.681 0-17.518s12.681-4.837 17.518 0zM12.853 23.732l-0.035 0.001c-0.102 0.004-0.203 0.006-0.305 0.007 0.115-0.001 0.227-0.004 0.34-0.009zM11.226 23.683l0.067 0.007c0.126 0.012 0.251 0.022 0.377 0.030-0.148-0.009-0.296-0.021-0.444-0.037zM10.141 23.519l0.242 0.046c0.138 0.025 0.276 0.047 0.414 0.066-0.219-0.031-0.438-0.068-0.656-0.112zM14.43 23.558l-0.095 0.017c-0.037 0.006-0.075 0.013-0.113 0.019 0.069-0.011 0.139-0.023 0.208-0.036zM8.648 23.111l0.244 0.082c0.36 0.116 0.724 0.214 1.092 0.293-0.451-0.097-0.897-0.222-1.336-0.375zM15.502 23.308l-0.269 0.073c-0.148 0.038-0.297 0.073-0.446 0.105 0.24-0.052 0.478-0.111 0.715-0.178zM16.559 22.951c-0.051 0.020-0.101 0.039-0.152 0.059h-0l0.152-0.059zM7.884 22.814l0.145 0.061c-0.048-0.020-0.097-0.041-0.145-0.061l-0-0zM17.124 22.71l-0.144 0.065c-0.079 0.035-0.157 0.068-0.236 0.101 0.128-0.053 0.255-0.108 0.381-0.166zM7.318 22.551l0.134 0.066 0.011 0.005c-0.049-0.023-0.097-0.047-0.146-0.071zM6.505 22.103l0.117 0.070c0.161 0.095 0.323 0.185 0.488 0.272-0.204-0.107-0.406-0.221-0.605-0.342zM19.037 21.593l-0.147 0.105c-0.087 0.061-0.174 0.12-0.262 0.178l0.016-0.011c0.133-0.088 0.264-0.178 0.393-0.272zM5.818 5.818c-3.628 3.628-3.628 9.51 0 13.139s9.51 3.628 13.138 0c3.628-3.628 3.628-9.51 0-13.139s-9.51-3.628-13.138 0zM19.653 21.114l-0.25 0.203 0.017-0.014 0.233-0.189zM4.649 20.697l-0.073-0.068c0.218 0.206 0.441 0.402 0.67 0.588-0.204-0.165-0.403-0.339-0.598-0.52zM4.358 20.416l0.219 0.213 0.011 0.011-0.23-0.224z"></path>
</symbol>
    <symbol id="icon-clock" viewBox="0 0 32 32">
<path d="M16 32c-8.837 0-16-7.163-16-16s7.163-16 16-16c8.837 0 16 7.163 16 16s-7.163 16-16 16zM16 28.8c1.681 0 3.346-0.331 4.899-0.974s2.964-1.586 4.153-2.775 2.132-2.6 2.775-4.153c0.643-1.553 0.974-3.218 0.974-4.899s-0.331-3.346-0.974-4.899-1.586-2.964-2.775-4.153c-1.189-1.189-2.6-2.132-4.153-2.775s-3.218-0.974-4.899-0.974c-3.395 0-6.651 1.349-9.052 3.749s-3.749 5.657-3.749 9.052c0 3.395 1.349 6.651 3.749 9.052s5.657 3.749 9.052 3.749zM17.6 16h6.4v3.2h-9.6v-11.2h3.2v8z"></path>
</symbol>
    <symbol id="icon-log" viewBox="0 0 32 32">
<path d="M3.81 32c0-3.233 1.284-6.334 3.571-8.62s5.387-3.57 8.62-3.57c3.233 0 6.334 1.284 8.62 3.57s3.57 5.387 3.57 8.62h-3.048c0-1.201-0.236-2.389-0.696-3.499s-1.133-2.117-1.982-2.966c-0.849-0.849-1.857-1.522-2.966-1.982s-2.298-0.696-3.499-0.696-2.39 0.236-3.499 0.696c-1.109 0.46-2.117 1.133-2.966 1.982s-1.522 1.857-1.982 2.966-0.696 2.298-0.696 3.499h-3.048zM16 18.286c-5.051 0-9.143-4.091-9.143-9.143s4.091-9.143 9.143-9.143c5.051 0 9.143 4.091 9.143 9.143s-4.091 9.143-9.143 9.143zM16 15.238c3.368 0 6.095-2.728 6.095-6.095s-2.728-6.095-6.095-6.095c-3.368 0-6.095 2.728-6.095 6.095s2.728 6.095 6.095 6.095z"></path>
</symbol>
    <symbol id="icon-comparison" viewBox="0 0 32 32">
<path d="M0 11.2h3.2v19.2h-3.2v-19.2zM9.6 1.6h3.2v28.8h-3.2v-28.8zM19.2 16h3.2v14.4h-3.2v-14.4zM28.8 6.4h3.2v24h-3.2v-24z"></path>
</symbol>
    <symbol id="icon-selected" viewBox="0 0 32 32">
<path d="M22 4c4.051 0 7.333 3.333 7.333 8 0 9.333-10 14.667-13.333 16.667-3.333-2-13.333-7.333-13.333-16.667 0-4.667 3.333-8 7.333-8 2.48 0 4.667 1.333 6 2.667 1.333-1.333 3.52-2.667 6-2.667zM17.245 24.805c1.116-0.696 2.193-1.453 3.227-2.268 3.975-3.16 6.195-6.613 6.195-10.537 0-3.147-2.049-5.333-4.667-5.333-1.435 0-2.987 0.76-4.115 1.885l-1.885 1.885-1.885-1.885c-1.128-1.125-2.68-1.885-4.115-1.885-2.587 0-4.667 2.208-4.667 5.333 0 3.925 2.221 7.377 6.193 10.537 0.993 0.789 2.053 1.527 3.228 2.267 0.399 0.252 0.793 0.493 1.245 0.763 0.452-0.269 0.847-0.511 1.245-0.761z"></path>
</symbol>
    <symbol id="icon-cart" viewBox="0 0 32 32">
<path d="M5.818 7.875l-4.717-4.716 2.058-2.058 4.716 4.717h22.17c0.227 0 0.45 0.053 0.653 0.155s0.379 0.249 0.514 0.431c0.135 0.182 0.226 0.393 0.266 0.616s0.026 0.453-0.039 0.67l-3.491 11.636c-0.090 0.3-0.274 0.562-0.525 0.749s-0.555 0.288-0.869 0.288h-17.827v2.909h16v2.909h-17.455c-0.386 0-0.756-0.153-1.029-0.426s-0.426-0.643-0.426-1.029v-16.852zM8.727 8.727v8.727h16.745l2.618-8.727h-19.363zM8 32c-0.579 0-1.134-0.23-1.543-0.639s-0.639-0.964-0.639-1.543c0-0.579 0.23-1.134 0.639-1.543s0.964-0.639 1.543-0.639c0.579 0 1.134 0.23 1.543 0.639s0.639 0.964 0.639 1.543c0 0.579-0.23 1.134-0.639 1.543s-0.964 0.639-1.543 0.639zM25.455 32c-0.579 0-1.134-0.23-1.543-0.639s-0.639-0.964-0.639-1.543c0-0.579 0.23-1.134 0.639-1.543s0.964-0.639 1.543-0.639c0.579 0 1.134 0.23 1.543 0.639s0.639 0.964 0.639 1.543c0 0.579-0.23 1.134-0.639 1.543s-0.964 0.639-1.543 0.639z"></path>
</symbol>
    <symbol id="icon-tel" viewBox="0 0 32 32">
      <path fill="#f6a700" style="fill:var(--color3, #f6a700)" d="M16 29.333C8.636 29.333 2.667 23.364 2.667 16S8.636 2.667 16 2.667 29.333 8.636 29.333 16 23.364 29.333 16 29.333zm0-2.666a10.664 10.664 0 0 0 7.543-18.209 10.669 10.669 0 0 0-15.085 0A10.666 10.666 0 0 0 16 26.667z"/>
      <path fill="#f6a700" style="fill:var(--color3, #f6a700)" d="M22.666 19.274v2.619a.739.739 0 0 1-.689.739c-.324.022-.588.034-.793.034-6.546 0-11.851-5.306-11.851-11.852 0-.204.011-.469.034-.793a.741.741 0 0 1 .739-.689h2.619a.37.37 0 0 1 .369.334c.017.17.033.306.047.409.147 1.027.449 2.027.895 2.964a.338.338 0 0 1-.109.42l-1.598 1.142a9.667 9.667 0 0 0 5.069 5.07l1.141-1.595a.345.345 0 0 1 .424-.11c.937.445 1.936.746 2.963.893.103.015.239.031.407.047a.368.368 0 0 1 .332.369h-.001z"/>
    </symbol>
    <symbol id="icon-telegram" viewBox="0 0 32 32">
      <path d="M16 0C7.162 0 0 7.162 0 16s7.162 16 16 16 16-7.163 16-16S24.837 0 16 0zm7.863 10.969-2.625 12.369c-.181.881-.712 1.087-1.45.681l-4-2.956-1.919 1.869c-.225.219-.4.4-.8.4-.519 0-.431-.194-.606-.688L11.1 18.169l-3.956-1.231c-.856-.262-.862-.85.194-1.269l15.412-5.95c.7-.319 1.381.169 1.113 1.25z"/>
    </symbol>
  </defs>
</svg>
