<svg aria-hidden="true" style="position:absolute;width:0;height:0;overflow:hidden" xmlns="http://www.w3.org/2000/svg">
  <defs>
    <symbol id="icon-Group-50" viewBox="0 0 46 32">
    <path d="M11.428 27.43h13.716c1.262 0 2.285 1.023 2.285 2.285v0c0 1.262-1.023 2.285-2.285 2.285h-13.716c-1.262 0-2.285-1.023-2.285-2.285v0c0-1.262 1.023-2.285 2.285-2.285z"></path>
    <path d="M11.428 13.715h32.002c1.262 0 2.285 1.023 2.285 2.285v0c0 1.262-1.023 2.285-2.285 2.285h-32.002c-1.262 0-2.285-1.023-2.285-2.285v0c0-1.262 1.023-2.285 2.285-2.285z"></path>
    <path d="M11.428 0h32.002c1.262 0 2.285 1.023 2.285 2.285v0c0 1.262-1.023 2.285-2.285 2.285h-32.002c-1.262 0-2.285-1.023-2.285-2.285v0c0-1.262 1.023-2.285 2.285-2.285z"></path>
    <path d="M4.571 2.285c0 1.262-1.023 2.285-2.286 2.285s-2.286-1.023-2.286-2.285c0-1.262 1.023-2.285 2.286-2.285s2.286 1.023 2.286 2.285z"></path>
    <path d="M4.571 16c0 1.262-1.023 2.285-2.286 2.285s-2.286-1.023-2.286-2.285c0-1.262 1.023-2.285 2.286-2.285s2.286 1.023 2.286 2.285z"></path>
    <path d="M4.571 29.715c0 1.262-1.023 2.285-2.286 2.285s-2.286-1.023-2.286-2.285c0-1.262 1.023-2.285 2.286-2.285s2.286 1.023 2.286 2.285z"></path>
    </symbol>
    <symbol id="icon-search" viewBox="0 0 32 32">
    <path d="M21.146 3.628c4.315 4.315 4.807 11.073 1.339 15.937l8.88 8.88c0.806 0.806 0.806 2.113 0 2.92s-2.113 0.806-2.92 0l-8.881-8.88-0.253 0.176c-4.844 3.274-11.443 2.725-15.683-1.515-4.837-4.837-4.837-12.681 0-17.518s12.681-4.837 17.518 0zM12.853 23.732l-0.035 0.001c-0.102 0.004-0.203 0.006-0.305 0.007 0.115-0.001 0.227-0.004 0.34-0.009zM11.226 23.683l0.067 0.007c0.126 0.012 0.251 0.022 0.377 0.030-0.148-0.009-0.296-0.021-0.444-0.037zM10.141 23.519l0.242 0.046c0.138 0.025 0.276 0.047 0.414 0.066-0.219-0.031-0.438-0.068-0.656-0.112zM14.43 23.558l-0.095 0.017c-0.037 0.006-0.075 0.013-0.113 0.019 0.069-0.011 0.139-0.023 0.208-0.036zM8.648 23.111l0.244 0.082c0.36 0.116 0.724 0.214 1.092 0.293-0.451-0.097-0.897-0.222-1.336-0.375zM15.502 23.308l-0.269 0.073c-0.148 0.038-0.297 0.073-0.446 0.105 0.24-0.052 0.478-0.111 0.715-0.178zM16.559 22.951c-0.051 0.020-0.101 0.039-0.152 0.059h-0l0.152-0.059zM7.884 22.814l0.145 0.061c-0.048-0.020-0.097-0.041-0.145-0.061l-0-0zM17.124 22.71l-0.144 0.065c-0.079 0.035-0.157 0.068-0.236 0.101 0.128-0.053 0.255-0.108 0.381-0.166zM7.318 22.551l0.134 0.066 0.011 0.005c-0.049-0.023-0.097-0.047-0.146-0.071zM6.505 22.103l0.117 0.070c0.161 0.095 0.323 0.185 0.488 0.272-0.204-0.107-0.406-0.221-0.605-0.342zM19.037 21.593l-0.147 0.105c-0.087 0.061-0.174 0.12-0.262 0.178l0.016-0.011c0.133-0.088 0.264-0.178 0.393-0.272zM5.818 5.818c-3.628 3.628-3.628 9.51 0 13.139s9.51 3.628 13.138 0c3.628-3.628 3.628-9.51 0-13.139s-9.51-3.628-13.138 0zM19.653 21.114l-0.25 0.203 0.017-0.014 0.233-0.189zM4.649 20.697l-0.073-0.068c0.218 0.206 0.441 0.402 0.67 0.588-0.204-0.165-0.403-0.339-0.598-0.52zM4.358 20.416l0.219 0.213 0.011 0.011-0.23-0.224z"></path>
    </symbol>
    <symbol id="icon-clock" viewBox="0 0 32 32">
    <path d="M16 32c-8.837 0-16-7.163-16-16s7.163-16 16-16c8.837 0 16 7.163 16 16s-7.163 16-16 16zM16 28.8c1.681 0 3.346-0.331 4.899-0.974s2.964-1.586 4.153-2.775 2.132-2.6 2.775-4.153c0.643-1.553 0.974-3.218 0.974-4.899s-0.331-3.346-0.974-4.899-1.586-2.964-2.775-4.153c-1.189-1.189-2.6-2.132-4.153-2.775s-3.218-0.974-4.899-0.974c-3.395 0-6.651 1.349-9.052 3.749s-3.749 5.657-3.749 9.052c0 3.395 1.349 6.651 3.749 9.052s5.657 3.749 9.052 3.749zM17.6 16h6.4v3.2h-9.6v-11.2h3.2v8z"></path>
    </symbol>
    <symbol id="icon-log" viewBox="0 0 32 32">
      <path d="M3.81 32c0-3.233 1.284-6.334 3.571-8.62s5.387-3.57 8.62-3.57c3.233 0 6.334 1.284 8.62 3.57s3.57 5.387 3.57 8.62h-3.048c0-1.201-0.236-2.389-0.696-3.499s-1.133-2.117-1.982-2.966c-0.849-0.849-1.857-1.522-2.966-1.982s-2.298-0.696-3.499-0.696-2.39 0.236-3.499 0.696c-1.109 0.46-2.117 1.133-2.966 1.982s-1.522 1.857-1.982 2.966-0.696 2.298-0.696 3.499h-3.048zM16 18.286c-5.051 0-9.143-4.091-9.143-9.143s4.091-9.143 9.143-9.143c5.051 0 9.143 4.091 9.143 9.143s-4.091 9.143-9.143 9.143zM16 15.238c3.368 0 6.095-2.728 6.095-6.095s-2.728-6.095-6.095-6.095c-3.368 0-6.095 2.728-6.095 6.095s2.728 6.095 6.095 6.095z"></path>
    </symbol>
    <symbol id="icon-comparison" viewBox="0 0 32 32">
      <path d="M0 11.2h3.2v19.2h-3.2v-19.2zM9.6 1.6h3.2v28.8h-3.2v-28.8zM19.2 16h3.2v14.4h-3.2v-14.4zM28.8 6.4h3.2v24h-3.2v-24z"></path>
    </symbol>
    <symbol id="icon-selected" viewBox="0 0 32 32">
      <path d="M22 4c4.051 0 7.333 3.333 7.333 8 0 9.333-10 14.667-13.333 16.667-3.333-2-13.333-7.333-13.333-16.667 0-4.667 3.333-8 7.333-8 2.48 0 4.667 1.333 6 2.667 1.333-1.333 3.52-2.667 6-2.667zM17.245 24.805c1.116-0.696 2.193-1.453 3.227-2.268 3.975-3.16 6.195-6.613 6.195-10.537 0-3.147-2.049-5.333-4.667-5.333-1.435 0-2.987 0.76-4.115 1.885l-1.885 1.885-1.885-1.885c-1.128-1.125-2.68-1.885-4.115-1.885-2.587 0-4.667 2.208-4.667 5.333 0 3.925 2.221 7.377 6.193 10.537 0.993 0.789 2.053 1.527 3.228 2.267 0.399 0.252 0.793 0.493 1.245 0.763 0.452-0.269 0.847-0.511 1.245-0.761z"></path>
    </symbol>
    <symbol id="icon-cart" viewBox="0 0 32 32">
      <path d="M5.818 7.875l-4.717-4.716 2.058-2.058 4.716 4.717h22.17c0.227 0 0.45 0.053 0.653 0.155s0.379 0.249 0.514 0.431c0.135 0.182 0.226 0.393 0.266 0.616s0.026 0.453-0.039 0.67l-3.491 11.636c-0.090 0.3-0.274 0.562-0.525 0.749s-0.555 0.288-0.869 0.288h-17.827v2.909h16v2.909h-17.455c-0.386 0-0.756-0.153-1.029-0.426s-0.426-0.643-0.426-1.029v-16.852zM8.727 8.727v8.727h16.745l2.618-8.727h-19.363zM8 32c-0.579 0-1.134-0.23-1.543-0.639s-0.639-0.964-0.639-1.543c0-0.579 0.23-1.134 0.639-1.543s0.964-0.639 1.543-0.639c0.579 0 1.134 0.23 1.543 0.639s0.639 0.964 0.639 1.543c0 0.579-0.23 1.134-0.639 1.543s-0.964 0.639-1.543 0.639zM25.455 32c-0.579 0-1.134-0.23-1.543-0.639s-0.639-0.964-0.639-1.543c0-0.579 0.23-1.134 0.639-1.543s0.964-0.639 1.543-0.639c0.579 0 1.134 0.23 1.543 0.639s0.639 0.964 0.639 1.543c0 0.579-0.23 1.134-0.639 1.543s-0.964 0.639-1.543 0.639z"></path>
    </symbol>
    <symbol id="icon-tel" viewBox="0 0 32 32">
      <path fill="#f6a700" style="fill:var(--color3, #f6a700)" d="M16 29.333C8.636 29.333 2.667 23.364 2.667 16S8.636 2.667 16 2.667 29.333 8.636 29.333 16 23.364 29.333 16 29.333zm0-2.666a10.664 10.664 0 0 0 7.543-18.209 10.669 10.669 0 0 0-15.085 0A10.666 10.666 0 0 0 16 26.667z"/>
      <path fill="#f6a700" style="fill:var(--color3, #f6a700)" d="M22.666 19.274v2.619a.739.739 0 0 1-.689.739c-.324.022-.588.034-.793.034-6.546 0-11.851-5.306-11.851-11.852 0-.204.011-.469.034-.793a.741.741 0 0 1 .739-.689h2.619a.37.37 0 0 1 .369.334c.017.17.033.306.047.409.147 1.027.449 2.027.895 2.964a.338.338 0 0 1-.109.42l-1.598 1.142a9.667 9.667 0 0 0 5.069 5.07l1.141-1.595a.345.345 0 0 1 .424-.11c.937.445 1.936.746 2.963.893.103.015.239.031.407.047a.368.368 0 0 1 .332.369h-.001z"/>
    </symbol>
    <symbol id="icon-telegram" viewBox="0 0 32 32">
      <path d="M16 0C7.162 0 0 7.162 0 16s7.162 16 16 16 16-7.163 16-16S24.837 0 16 0zm7.863 10.969-2.625 12.369c-.181.881-.712 1.087-1.45.681l-4-2.956-1.919 1.869c-.225.219-.4.4-.8.4-.519 0-.431-.194-.606-.688L11.1 18.169l-3.956-1.231c-.856-.262-.862-.85.194-1.269l15.412-5.95c.7-.319 1.381.169 1.113 1.25z"/>
    </symbol>
    <symbol id="icon-shield" viewBox="0 0 32 32">
      <path fill="#f6a700" style="fill: var(--color1, #f6a700)" d="M29.937 4.959c-0.078-0.008-7.898-0.81-13.345-4.767-0.353-0.256-0.831-0.256-1.183-0-5.448 3.956-13.267 4.759-13.345 4.767-0.516 0.050-0.91 0.484-0.91 1.002 0 0.216 0.020 5.366 1.773 11.146 1.039 3.427 2.476 6.359 4.271 8.715 2.28 2.992 5.138 5.055 8.495 6.13 0.1 0.032 0.203 0.048 0.307 0.048s0.207-0.016 0.307-0.048c3.357-1.075 6.215-3.138 8.495-6.13 1.795-2.356 3.232-5.288 4.271-8.715 1.753-5.78 1.773-10.93 1.773-11.146 0-0.518-0.394-0.952-0.91-1.002zM27.447 15.472c-0.011 0.010-0.022 0.019-0.033 0.030l-13.517 13.518c-0.895-0.474-1.738-1.041-2.529-1.699l17.127-17.127c-0.203 1.529-0.528 3.355-1.047 5.279zM5.663 18.873l14.439-14.439c1.056 0.45 2.102 0.823 3.096 1.132l-16.213 16.212c-0.481-0.902-0.922-1.871-1.323-2.905zM16 2.235c0.703 0.473 1.431 0.899 2.169 1.284l-13.241 13.241c-0.020-0.064-0.041-0.127-0.060-0.192-0.33-1.084-0.596-2.151-0.811-3.165l10.008-10.008c0.657-0.352 1.306-0.738 1.935-1.16zM9.162 5.451l-5.541 5.541c-0.272-1.795-0.381-3.269-0.425-4.148 1.205-0.176 3.434-0.576 5.965-1.393zM8.048 23.564l17.382-17.381c1.418 0.346 2.605 0.55 3.375 0.662-0.003 0.064-0.007 0.132-0.011 0.202l-18.889 18.889c-0.664-0.713-1.283-1.504-1.857-2.371zM16 29.933c-0.042-0.014-0.083-0.030-0.125-0.045l10.081-10.081c-2.235 5.219-5.573 8.619-9.957 10.126z"></path>
    </symbol>
    <symbol id="icon-card" viewBox="0 0 48 32">
      <path fill="#f6a700" style="fill: var(--color1, #f6a700)" d="M48 5.005c0-2.76-2.425-5.005-5.406-5.005h-37.187c-2.981 0-5.406 2.245-5.406 5.005v21.489c0 2.76 2.425 5.005 5.406 5.005h37.188c2.981 0 5.406-2.245 5.406-5.005v-21.489h-0zM5.406 3.033h37.188c1.174 0 2.13 0.885 2.13 1.972v2.758h-41.447v-2.758c0-1.087 0.955-1.972 2.13-1.972zM44.723 15.527h-41.447v-4.73h41.447v4.73zM42.594 28.466h-37.187c-1.174 0-2.13-0.885-2.13-1.972v-7.934h41.447v7.934c-0 1.087-0.956 1.972-2.13 1.972z"></path>
      <path fill="#f6a700" style="fill: var(--color1, #f6a700)" d="M18.41 23.29h-11.181c-0.905 0-1.638 0.679-1.638 1.517s0.734 1.517 1.638 1.517h11.181c0.905 0 1.638-0.679 1.638-1.517s-0.734-1.517-1.638-1.517z"></path>
      <path fill="#f6a700" style="fill: var(--color1, #f6a700)" d="M26.795 23.29h-2.795c-0.905 0-1.638 0.679-1.638 1.517s0.734 1.517 1.638 1.517h2.795c0.905 0 1.638-0.679 1.638-1.517s-0.734-1.517-1.638-1.517z"></path>
    </symbol>
    <symbol id="icon-keys" viewBox="0 0 35 32">
      <path fill="#f6a700" style="fill: var(--color1, #f6a700)" d="M28.594 22.181l-4.125-0.913-4.598-4.257 3.542-3.275c0.823 0.267 1.678 0.398 2.529 0.398 1.991-0 3.958-0.715 5.421-2.067 2.265-2.093 2.879-5.302 1.527-7.985l-0.627-1.244-3.729 3.444-1.731-1.6 3.73-3.445-1.35-0.581c-2.901-1.248-6.372-0.681-8.636 1.411-2.088 1.93-2.773 4.808-1.808 7.348l-1.394 1.289-10.27-9.508c-0.767-0.712-1.788-1.105-2.876-1.107-0.002 0-0.003 0-0.005 0-1.088 0-2.11 0.392-2.879 1.103-0.77 0.713-1.194 1.661-1.193 2.669s0.425 1.954 1.194 2.666l10.267 9.505-1.397 1.291c-2.748-0.893-5.862-0.261-7.95 1.669-2.265 2.093-2.879 5.302-1.527 7.985l0.627 1.244 3.728-3.444 1.731 1.6-3.73 3.445 1.35 0.581c1.027 0.442 2.124 0.656 3.214 0.656 1.991-0 3.958-0.715 5.421-2.067 2.088-1.93 2.773-4.808 1.808-7.348l3.54-3.273 4.599 4.258 0.986 3.819 5.315 4.921 4.609-4.267-5.315-4.921zM20.906 9.238c-0.983-1.951-0.536-4.286 1.112-5.809 1.267-1.171 3.051-1.686 4.769-1.45l-2.925 2.702 4.674 4.319 2.927-2.704c0.256 1.587-0.301 3.237-1.568 4.407-1.649 1.524-4.178 1.937-6.291 1.028l-0.659-0.283-2.398 2.217-1.73-1.602 2.396-2.215-0.308-0.611zM2.202 3.86c-0-0.493 0.207-0.957 0.584-1.306s0.877-0.54 1.41-0.54c0.534 0.001 1.034 0.193 1.41 0.542l13.471 12.47-2.821 2.608-13.469-12.469c-0.377-0.349-0.585-0.813-0.585-1.306zM11.584 27.63c-1.267 1.171-3.052 1.686-4.769 1.45l2.925-2.702-4.674-4.319-2.927 2.704c-0.256-1.587 0.301-3.237 1.568-4.407 1.649-1.524 4.178-1.937 6.291-1.028l0.659 0.283 2.398-2.217 1.73 1.602-2.396 2.216 0.308 0.611c0.983 1.952 0.536 4.286-1.112 5.809zM25.871 25.471l-0.524-2.030 2.193 0.485 3.43 3.176-1.669 1.545-3.43-3.176z"></path>
    </symbol>
    <symbol id="icon-quote" viewBox="0 0 32 32">
      <path fill="#f6a700" style="fill: var(--color1, #f6a700)" d="M14.093 8.254v-6.469c-7.771 0-14.093 6.322-14.093 14.093v14.093h14.093v-14.093h-7.624c0-4.204 3.42-7.624 7.624-7.624z"></path>
      <path fill="#f6a700" style="fill: var(--color1, #f6a700)" d="M31.595 8.254v-6.469c-7.771 0-14.093 6.322-14.093 14.093v14.093h14.093v-14.093h-7.624c0-4.204 3.42-7.624 7.624-7.624z"></path>
    </symbol>
  </defs>
</svg>
