<svg aria-hidden="true" style="position:absolute;width:0;height:0;overflow:hidden" xmlns="http://www.w3.org/2000/svg">
  <defs>
    <symbol id="icon-Group-50" viewBox="0 0 46 32">
<path d="M11.428 27.43h13.716c1.262 0 2.285 1.023 2.285 2.285v0c0 1.262-1.023 2.285-2.285 2.285h-13.716c-1.262 0-2.285-1.023-2.285-2.285v0c0-1.262 1.023-2.285 2.285-2.285z"></path>
<path d="M11.428 13.715h32.002c1.262 0 2.285 1.023 2.285 2.285v0c0 1.262-1.023 2.285-2.285 2.285h-32.002c-1.262 0-2.285-1.023-2.285-2.285v0c0-1.262 1.023-2.285 2.285-2.285z"></path>
<path d="M11.428 0h32.002c1.262 0 2.285 1.023 2.285 2.285v0c0 1.262-1.023 2.285-2.285 2.285h-32.002c-1.262 0-2.285-1.023-2.285-2.285v0c0-1.262 1.023-2.285 2.285-2.285z"></path>
<path d="M4.571 2.285c0 1.262-1.023 2.285-2.286 2.285s-2.286-1.023-2.286-2.285c0-1.262 1.023-2.285 2.286-2.285s2.286 1.023 2.286 2.285z"></path>
<path d="M4.571 16c0 1.262-1.023 2.285-2.286 2.285s-2.286-1.023-2.286-2.285c0-1.262 1.023-2.285 2.286-2.285s2.286 1.023 2.286 2.285z"></path>
<path d="M4.571 29.715c0 1.262-1.023 2.285-2.286 2.285s-2.286-1.023-2.286-2.285c0-1.262 1.023-2.285 2.286-2.285s2.286 1.023 2.286 2.285z"></path>
</symbol>
    <symbol id="icon-search" viewBox="0 0 32 32">
      <path fill="#fff" style="fill:var(--color1, #fff)" d="M21.146 3.628a12.391 12.391 0 0 1 1.339 15.937l8.88 8.88a2.065 2.065 0 0 1-2.92 2.92l-8.881-8.88-.253.176c-4.844 3.274-11.443 2.725-15.683-1.515-4.837-4.837-4.837-12.681 0-17.518s12.681-4.837 17.518 0zm-8.293 20.104-.035.001a10.345 10.345 0 0 1 .035-.002zm-1.627-.049.067.007a11.958 11.958 0 0 0-.067-.007zm-1.085-.164.242.046a9.888 9.888 0 0 0-.242-.046zm4.289.039-.095.017-.113.019c.069-.011.139-.023.208-.036zm-5.782-.447.244.082a11.277 11.277 0 0 0-.244-.082zm6.854.197-.269.073a11.531 11.531 0 0 1 .269-.073zm1.057-.357-.152.059.152-.059zm-8.675-.137.145.061-.145-.061zm9.24-.104-.144.065a11.947 11.947 0 0 1 .145-.065zm-9.806-.159.134.066.011.005-.146-.071zm-.813-.448.117.07a11.646 11.646 0 0 0-.117-.07zm12.532-.51-.147.105c-.087.061-.174.12-.262.178l.016-.011c.133-.088.264-.178.393-.272zM5.818 5.818c-3.628 3.628-3.628 9.51 0 13.139s9.51 3.628 13.138 0 3.628-9.51 0-13.139-9.51-3.628-13.138 0zm13.835 15.296-.25.203.017-.014.233-.189zm-15.004-.417-.073-.068a11.889 11.889 0 0 0 .072.068zm-.291-.281.219.213.011.011-.23-.224z"/>
    </symbol>
    <symbol id="icon-clock" viewBox="0 0 32 32">
      <path fill="#fffefe" style="fill:var(--color2, #fffefe)" d="M16 32C7.163 32 0 24.837 0 16S7.163 0 16 0s16 7.163 16 16-7.163 16-16 16zm0-3.2a12.808 12.808 0 0 0 9.052-3.749A12.796 12.796 0 0 0 27.827 11.1 12.796 12.796 0 0 0 16 3.198a12.799 12.799 0 0 0-9.052 21.853A12.799 12.799 0 0 0 16 28.8zM17.6 16H24v3.2h-9.6V8h3.2v8z"/>
    </symbol>
    <symbol id="icon-log" viewBox="0 0 32 32">
<path d="M3.81 32c0-3.233 1.284-6.334 3.571-8.62s5.387-3.57 8.62-3.57c3.233 0 6.334 1.284 8.62 3.57s3.57 5.387 3.57 8.62h-3.048c0-1.201-0.236-2.389-0.696-3.499s-1.133-2.117-1.982-2.966c-0.849-0.849-1.857-1.522-2.966-1.982s-2.298-0.696-3.499-0.696-2.39 0.236-3.499 0.696c-1.109 0.46-2.117 1.133-2.966 1.982s-1.522 1.857-1.982 2.966-0.696 2.298-0.696 3.499h-3.048zM16 18.286c-5.051 0-9.143-4.091-9.143-9.143s4.091-9.143 9.143-9.143c5.051 0 9.143 4.091 9.143 9.143s-4.091 9.143-9.143 9.143zM16 15.238c3.368 0 6.095-2.728 6.095-6.095s-2.728-6.095-6.095-6.095c-3.368 0-6.095 2.728-6.095 6.095s2.728 6.095 6.095 6.095z"></path>
</symbol>
    <symbol id="icon-comparison" viewBox="0 0 32 32">
      <path fill="#fffefe" style="fill:var(--color2, #fffefe)" d="M0 11.2h3.2v19.2H0V11.2zm9.6-9.6h3.2v28.8H9.6V1.6zM19.2 16h3.2v14.4h-3.2V16zm9.6-9.6H32v24h-3.2v-24z"/>
    </symbol>
    <symbol id="icon-selected" viewBox="0 0 32 32">
      <path fill="#fffefe" style="fill:var(--color2, #fffefe)" d="M22 4c4.051 0 7.333 3.333 7.333 8 0 9.333-10 14.667-13.333 16.667-3.333-2-13.333-7.333-13.333-16.667C2.667 7.333 6 4 10 4c2.48 0 4.667 1.333 6 2.667C17.333 5.334 19.52 4 22 4zm-4.755 20.805a35.912 35.912 0 0 0 3.227-2.268c3.975-3.16 6.195-6.613 6.195-10.537 0-3.147-2.049-5.333-4.667-5.333-1.435 0-2.987.76-4.115 1.885L16 10.437l-1.885-1.885C12.987 7.427 11.435 6.667 10 6.667c-2.587 0-4.667 2.208-4.667 5.333 0 3.925 2.221 7.377 6.193 10.537a35.851 35.851 0 0 0 3.228 2.267c.399.252.793.493 1.245.763.452-.269.847-.511 1.245-.761z"/>
    </symbol>
    <symbol id="icon-cart" viewBox="0 0 32 32">
      <path fill="#fffefe" style="fill:var(--color2, #fffefe)" d="M5.818 7.875 1.101 3.159l2.058-2.058 4.716 4.717h22.17a1.453 1.453 0 0 1 1.433 1.202c.04.223.026.453-.039.67l-3.491 11.636a1.455 1.455 0 0 1-1.394 1.037H8.727v2.909h16v2.909H7.272a1.455 1.455 0 0 1-1.455-1.455V7.874zm2.909.852v8.727h16.745l2.618-8.727H8.727zM8 32a2.182 2.182 0 1 1 0-4.364A2.182 2.182 0 0 1 8 32zm17.455 0a2.182 2.182 0 1 1 0-4.364 2.182 2.182 0 0 1 0 4.364z"/>
    </symbol>
    <symbol id="icon-tel" viewBox="0 0 32 32">
      <path fill="#f6a700" style="fill:var(--color3, #f6a700)" d="M16 29.333C8.636 29.333 2.667 23.364 2.667 16S8.636 2.667 16 2.667 29.333 8.636 29.333 16 23.364 29.333 16 29.333zm0-2.666a10.664 10.664 0 0 0 7.543-18.209 10.669 10.669 0 0 0-15.085 0A10.666 10.666 0 0 0 16 26.667z"/>
      <path fill="#f6a700" style="fill:var(--color3, #f6a700)" d="M22.666 19.274v2.619a.739.739 0 0 1-.689.739c-.324.022-.588.034-.793.034-6.546 0-11.851-5.306-11.851-11.852 0-.204.011-.469.034-.793a.741.741 0 0 1 .739-.689h2.619a.37.37 0 0 1 .369.334c.017.17.033.306.047.409.147 1.027.449 2.027.895 2.964a.338.338 0 0 1-.109.42l-1.598 1.142a9.667 9.667 0 0 0 5.069 5.07l1.141-1.595a.345.345 0 0 1 .424-.11c.937.445 1.936.746 2.963.893.103.015.239.031.407.047a.368.368 0 0 1 .332.369h-.001z"/>
    </symbol>
    <symbol id="icon-telegram" viewBox="0 0 32 32">
      <path d="M16 0C7.162 0 0 7.162 0 16s7.162 16 16 16 16-7.163 16-16S24.837 0 16 0zm7.863 10.969-2.625 12.369c-.181.881-.712 1.087-1.45.681l-4-2.956-1.919 1.869c-.225.219-.4.4-.8.4-.519 0-.431-.194-.606-.688L11.1 18.169l-3.956-1.231c-.856-.262-.862-.85.194-1.269l15.412-5.95c.7-.319 1.381.169 1.113 1.25z"/>
    </symbol>
  </defs>
</svg>
